<?xml version="1.0" encoding="UTF-8"?>
<svg id="Capa_1" xmlns="http://www.w3.org/2000/svg" version="1.1" viewBox="0 0 1190.6 841.9">
  <!-- Generator: Adobe Illustrator 29.1.0, SVG Export Plug-In . SVG Version: 2.1.0 Build 142)  -->
  <defs>
    <style>
      .st0 {
        fill: #e1e1e1;
      }
    </style>
  </defs>
  <path class="st0" d="M675.6,445.1c3.5,0,6.2-1.7,6.2-4.8,0-6.4-10-3.7-10-8s1.3-2.6,3.7-2.6,3.8,1.2,3.9,3.1h2c-.2-3-2.6-5-6-5s-5.7,1.8-5.7,4.5c0,6,9.9,3.6,9.9,8s-1.7,3-4,3-4.2-1.5-4.4-3.9h-2c.2,3.5,2.6,5.7,6.4,5.7M657.5,438.5l3.1-8,3,8h-6.1ZM666.1,444.9h2.2l-6.7-16.9h-1.9l-6.7,16.9h2.2l1.8-4.6h7.5l1.7,4.6h0ZM648.9,444.9h2v-16.9h-2v16.9ZM649,426.7h1.8l2.5-3.6h-2.2l-2.1,3.6h0ZM646.3,444.9l-5.4-8.6,5.3-8.4h-2.2l-4.2,6.6-4.2-6.6h-2.2l5.3,8.3-5.4,8.6h2.2l4.4-6.9,4.3,6.9h2.2ZM621.7,429.9h4.3c2.4,0,3.3,1.5,3.3,3.1s-.9,3.2-3.3,3.2h-4.3v-6.3ZM628.8,436.9c1.6-.8,2.7-2.1,2.7-3.9,0-3-2-5-5.4-5h-6.4v16.9h2v-6.9h4.6c1.6,0,2.7,1.2,2.8,2.8l.3,4.1h2l-.3-4.2c-.1-1.7-.9-3.1-2.2-3.8M606,444.9h10.8v-1.9h-8.8v-6h6.9v-1.9h-6.9v-5.4h8.5v-1.9h-10.6v16.9h0ZM589.3,444.9h2v-13.7l8.7,13.7h2.4v-16.9h-2v13.8l-8.7-13.8h-2.3v16.9ZM575.6,444.9h10.8v-1.9h-8.8v-6h6.9v-1.9h-6.9v-5.4h8.5v-1.9h-10.6v16.9h0ZM561,445.1c3.5,0,6.2-1.7,6.2-4.8,0-6.4-10-3.7-10-8s1.3-2.6,3.7-2.6,3.8,1.2,3.9,3.1h2c-.2-3-2.6-5-6-5s-5.7,1.8-5.7,4.5c0,6,9.9,3.6,9.9,8s-1.7,3-4,3-4.2-1.5-4.4-3.9h-2c.2,3.5,2.6,5.7,6.4,5.7M542.9,438.5l3.1-8,3,8h-6.1ZM551.5,444.9h2.2l-6.7-16.9h-1.9l-6.7,16.9h2.2l1.8-4.6h7.5l1.7,4.6h0ZM532.7,444.9h2.1v-15.1h5.4v-1.9h-12.9v1.9h5.4v15.1h0ZM518.7,444.9h10.5v-1.9h-8.5v-15.1h-2v16.9h0ZM506,438.5l3.1-8,3,8h-6.1ZM514.6,444.9h2.2l-6.7-16.9h-1.9l-6.7,16.9h2.1l1.8-4.6h7.5l1.7,4.6h0ZM483.6,444.9h10.9v-1.9h-8.8v-6h6.9v-1.9h-6.9v-5.4h8.5v-1.9h-10.6v16.9h0ZM469.5,443.1v-13.2h2.9c3.3,0,6.3,1.9,6.3,6.6s-3,6.6-6.3,6.6h-2.9ZM467.4,444.9h5c4.7,0,8.4-3.1,8.4-8.5s-3.7-8.5-8.4-8.5h-5v16.9h0ZM723.8,411.7l3.1-8,3,8h-6.1ZM732.4,418.1h2.2l-6.7-16.9h-1.9l-6.7,16.9h2.2l1.8-4.6h7.5l1.7,4.6h0ZM711.2,418.3c3.8,0,6.8-2.3,7.1-5.5h-2.1c-.2,2.1-2.4,3.6-5,3.6s-6-2.4-6-6.8,2.5-6.8,6-6.8,4.7,1.5,5,3.6h2.2c-.5-3.2-3.5-5.5-7.2-5.5s-8.1,2.8-8.1,8.6,3.9,8.6,8.1,8.6M698.2,418.1h2v-16.9h-2v16.9ZM689.3,418.3c3.5,0,6.2-1.7,6.2-4.8,0-6.4-10-3.7-10-8s1.3-2.6,3.7-2.6,3.8,1.2,3.9,3.1h2c-.2-3-2.6-5-6-5s-5.7,1.8-5.7,4.5c0,6,9.9,3.6,9.9,8s-1.7,3-4,3-4.2-1.5-4.4-3.9h-2c.2,3.5,2.6,5.7,6.4,5.7M678.2,418.1h2v-16.9h-2v16.9ZM678.3,399.8h1.8l2.5-3.6h-2.2l-2.1,3.6h0ZM664.8,418.1h2v-7.6h6.9v-1.9h-6.9v-5.6h8.5v-1.9h-10.6v16.9h0ZM645.4,418.1h10.8v-1.9h-8.8v-6h6.9v-1.9h-6.9v-5.4h8.5v-1.9h-10.6v16.9h0ZM631.2,416.2v-13.2h2.9c3.3,0,6.3,1.9,6.3,6.6s-3,6.6-6.3,6.6h-2.9ZM629.2,418.1h5c4.7,0,8.4-3.1,8.4-8.5s-3.7-8.5-8.4-8.5h-5v16.9h0ZM672.6,389.5c-3.6,0-6.2-2.9-6.2-6.8s2.6-6.8,6.2-6.8,6.2,2.9,6.2,6.8-2.6,6.8-6.2,6.8M672.6,391.4c4.8,0,8.3-3.7,8.3-8.6s-3.5-8.6-8.3-8.6-8.3,3.7-8.3,8.6,3.5,8.6,8.3,8.6M654.8,391.4c2.5,0,4.6-1.3,5.4-3.1v3h1.9v-5.8c0-1.9-1.8-2.9-3-2.9h-4.2v1.8h3.8c.8,0,1.3.5,1.3,1.3,0,2.4-2.5,4-5.2,4s-6-2.5-6-6.8,2.6-6.8,6-6.8,4.7,1.5,5.1,3.7h2.2c-.4-3.2-3.4-5.5-7.3-5.5s-8.2,2.9-8.2,8.6,3.9,8.6,8.1,8.6M634.5,391.2h10.8v-1.9h-8.8v-6h6.9v-1.9h-6.9v-5.4h8.5v-1.9h-10.6v16.9h0ZM621.8,391.2h10.5v-1.9h-8.5v-15.1h-2v16.9h0ZM609.2,384.8l3.1-8,3,8h-6.1ZM617.8,391.2h2.2l-6.7-16.9h-1.9l-6.7,16.9h2.2l1.8-4.6h7.5l1.7,4.6h0ZM595.9,391.4c2.5,0,4.6-1.3,5.4-3.1v3h1.9v-5.8c0-1.9-1.8-2.9-3-2.9h-4.2v1.8h3.8c.8,0,1.3.5,1.3,1.3,0,2.4-2.5,4-5.2,4s-6-2.5-6-6.8,2.6-6.8,6-6.8,4.7,1.5,5.1,3.7h2.2c-.4-3.2-3.4-5.5-7.3-5.5s-8.2,2.9-8.2,8.6,3.9,8.6,8.1,8.6M571.7,389.5c-3.6,0-6.2-2.9-6.2-6.8s2.6-6.8,6.2-6.8,6.2,2.9,6.2,6.8-2.6,6.8-6.2,6.8M571.7,391.4c4.8,0,8.3-3.7,8.3-8.6s-3.5-8.6-8.3-8.6-8.3,3.7-8.3,8.6,3.5,8.6,8.3,8.6M555.8,391.2h2.1v-15.1h5.4v-1.9h-12.9v1.9h5.4v15.1h0ZM542.2,391.4c3.8,0,6.4-2.3,6.4-6v-11.1h-2v11.2c0,2.5-1.7,4-4.4,4s-4.3-1.5-4.3-4v-11.2h-2v11.1c0,3.7,2.5,6,6.4,6M526.6,391.2h2.1v-15.1h5.4v-1.9h-12.9v1.9h5.4v15.1h0ZM517,391.2h2v-16.9h-2v16.9ZM507.6,391.2h2.1v-15.1h5.4v-1.9h-12.9v1.9h5.4v15.1h0ZM495.2,391.4c3.5,0,6.2-1.7,6.2-4.8,0-6.4-10-3.7-10-8s1.4-2.6,3.6-2.6,3.8,1.2,3.9,3.1h2c-.2-3-2.6-5-6-5s-5.7,1.8-5.7,4.5c0,6,9.9,3.6,9.9,8s-1.7,3-4,3-4.2-1.5-4.4-3.9h-2c.2,3.5,2.6,5.7,6.4,5.7M473,391.2h2v-13.7l8.7,13.7h2.4v-16.9h-2v13.8l-8.7-13.8h-2.3v16.9h0ZM467.4,391.2h2v-16.9h-2v16.9ZM418.6,440.2h-151.8c-16.9,0-30.6-13.7-30.6-30.6s13.7-30.6,30.6-30.6h151.8c16.9,0,30.6,13.7,30.6,30.6s-13.7,30.6-30.6,30.6M418.6,374.1h-151.8c-19.6,0-35.5,15.9-35.5,35.5s15.9,35.5,35.5,35.5h151.8c19.6,0,35.5-15.9,35.5-35.5s-15.9-35.5-35.5-35.5M401.1,425.7h22.3v5.7h-28.8v-19.1h6.5v13.4ZM401.1,406.6h22.3v5.7h-22.3v-5.7ZM423.4,387.8v5.7h-22.3v13h-6.5v-18.8h28.8ZM330.2,412.3h0v-5.7h21.6v5.7h-21.6ZM323.7,412.3h6.5v19.1h-6.5v-19.1h0ZM330.2,406.6h-6.5v-18.8h28.1v5.7h-21.6v13ZM262.1,387.7h6.5v43.7h-6.5v-43.7ZM362.4,414.7l7.1-18.8,7.1,18.8h-14.3ZM366.6,387.8l-17.2,43.6h6.7l4.2-11.1h18.6l4.2,11.1h6.8l-17.2-43.6h-6ZM297,393c-8.7,0-15,5.9-15,16.6s6.4,16.8,15,16.8,12.8-4,12.8-9.7v-4.5h-13.5v-5.7h13.5v5.7h6.3v19.2h-5.9v-7.4c-1.9,4.7-7.2,7.9-13.4,7.9-11,0-21.3-7.4-21.3-22.4s10.4-22.4,21.5-22.4,18.3,6.1,19.2,14.8h-6.8c-.9-5.3-5.9-9-12.4-9M814.5,388.3h-59.3c1.3-1.7,2.8-3.3,4.5-4.7h50.4c1.6,1.5,3.1,3,4.5,4.7ZM819.8,397.8h-70c.6-1.6,1.3-3.2,2.2-4.7h65.6c.8,1.5,1.6,3.1,2.2,4.7h0ZM766.3,440.4h37c-5.5,3-11.8,4.7-18.5,4.7s-13.1-1.7-18.5-4.7h0ZM810,435.7h-50.4c-1.6-1.5-3.1-3-4.5-4.7h59.3c-1.3,1.7-2.8,3.3-4.5,4.7h0ZM817.6,426.2h-65.6c-.8-1.5-1.6-3.1-2.2-4.7h70c-.6,1.6-1.3,3.2-2.2,4.7h0ZM821.8,407.2h-74c.1-1.6.3-3.2.7-4.7h72.7c.3,1.5.5,3.1.7,4.7h0ZM803.3,378.8h-37c5.5-3,11.8-4.7,18.5-4.7s13.1,1.7,18.5,4.7h0ZM821.2,416.7h-72.7c-.3-1.5-.5-3.1-.7-4.7h74c-.1,1.6-.3,3.2-.7,4.7h0ZM864.9,440.4h37c-5.5,3-11.8,4.7-18.5,4.7s-13.1-1.7-18.5-4.7h0ZM901.9,378.8h-37c5.5-3,11.8-4.7,18.5-4.7s13.1,1.7,18.5,4.7h0ZM883.3,412h37.1c-.1,1.6-.3,3.2-.7,4.7h-37.1c-.3,1.6-.8,3.2-1.4,4.7h37.1c-.6,1.6-1.3,3.2-2.2,4.7h-37.1c-.9,1.7-2,3.2-3.1,4.7h37.1c-1.3,1.7-2.8,3.3-4.5,4.7h-37.1c-2,1.8-4.3,3.4-6.7,4.7h-52.6c1.8-1.5,3.4-3,4.9-4.7h41.1c-1.6-1.5-3.1-3-4.5-4.7h-33c1-1.5,1.9-3.1,2.6-4.7h27.3c-.8-1.5-1.6-3.1-2.2-4.7h-23.2c.5-1.5.9-3.1,1.2-4.7h20.7c-.3-1.5-.5-3.1-.7-4.7h-19.4c0-.8,0-1.6,0-2.4s0-1.6,0-2.4h19.4c.1-1.6.3-3.2.7-4.7h-20.7c-.3-1.6-.7-3.2-1.2-4.7h23.2c.6-1.6,1.3-3.2,2.2-4.7h-27.3c-.8-1.6-1.7-3.2-2.6-4.7h33c1.3-1.7,2.8-3.3,4.5-4.7h-41.1c-1.5-1.7-3.2-3.3-4.9-4.7h52.6c2.4,1.3,4.7,2.9,6.7,4.7h37.1c1.6,1.5,3.1,3,4.5,4.7h-37.1c1.2,1.5,2.2,3.1,3.1,4.7h37.1c.8,1.5,1.6,3.1,2.2,4.7h-37.1c.6,1.5,1,3.1,1.4,4.7h37.1c.3,1.5.5,3.1.7,4.7h-37.1c0,.8,0,1.6,0,2.4s0,1.6,0,2.4Z"/>
</svg>