<?xml version="1.0" encoding="UTF-8"?>
<svg id="Capa_1" xmlns="http://www.w3.org/2000/svg" version="1.1" viewBox="0 0 1190.6 841.9">
  <!-- Generator: Adobe Illustrator 29.1.0, SVG Export Plug-In . SVG Version: 2.1.0 Build 142)  -->
  <defs>
    <style>
      .st0 {
        fill: #00001e;
      }
    </style>
  </defs>
  <path class="st0" d="M627.9,444.2c3.5,0,6.2-1.7,6.2-4.8,0-6.4-9.9-3.7-9.9-8s1.3-2.6,3.6-2.6,3.7,1.2,3.9,3.1h2c-.2-3-2.6-5-6-5s-5.7,1.8-5.7,4.5c0,6,9.9,3.6,9.9,8s-1.7,2.9-4,2.9-4.2-1.5-4.4-3.9h-2c.2,3.5,2.6,5.7,6.4,5.7M609.9,437.6l3.1-8,3,8h-6.1ZM618.4,444h2.2l-6.7-16.9h-1.9l-6.7,16.9h2.2l1.8-4.6h7.5l1.7,4.6h0ZM601.2,444h2v-16.9h-2v16.9ZM601.3,425.8h1.8l2.5-3.6h-2.2l-2.1,3.6h0ZM598.7,444l-5.4-8.5,5.3-8.3h-2.2l-4.2,6.6-4.2-6.6h-2.2l5.3,8.3-5.4,8.6h2.2l4.4-6.9,4.3,6.9h2.1ZM574.1,429h4.3c2.4,0,3.3,1.5,3.3,3.1s-.9,3.2-3.3,3.2h-4.3v-6.3h0ZM581.2,436c1.6-.8,2.7-2.1,2.7-3.9,0-2.9-2-4.9-5.4-4.9h-6.4v16.9h2v-6.9h4.6c1.6,0,2.7,1.2,2.8,2.8l.3,4.1h2l-.3-4.2c-.1-1.7-.9-3.1-2.2-3.8M558.4,444h10.8v-1.9h-8.8v-5.9h6.9v-1.9h-6.9v-5.4h8.5v-1.9h-10.6v16.9h0ZM541.8,444h2v-13.7l8.7,13.7h2.4v-16.9h-2v13.8l-8.7-13.8h-2.3v16.9h0ZM528.1,444h10.8v-1.9h-8.8v-5.9h6.9v-1.9h-6.9v-5.4h8.5v-1.9h-10.6v16.9h0ZM513.5,444.2c3.5,0,6.2-1.7,6.2-4.8,0-6.4-9.9-3.7-9.9-8s1.4-2.6,3.6-2.6,3.7,1.2,3.9,3.1h2c-.2-3-2.6-5-6-5s-5.7,1.8-5.7,4.5c0,6,9.9,3.6,9.9,8s-1.7,2.9-4,2.9-4.2-1.5-4.4-3.9h-2c.2,3.5,2.6,5.7,6.4,5.7M495.5,437.6l3.1-8,3,8h-6.1ZM504,444h2.1l-6.7-16.9h-1.9l-6.7,16.9h2.1l1.8-4.6h7.5l1.7,4.6h0ZM485.3,444h2.1v-15h5.4v-1.9h-12.9v1.9h5.4v15ZM471.3,444h10.5v-1.9h-8.4v-15h-2v16.9ZM458.7,437.6l3.1-8,3,8h-6.1ZM467.3,444h2.1l-6.7-16.9h-1.9l-6.7,16.9h2.1l1.8-4.6h7.5l1.7,4.6h0ZM436.3,444h10.8v-1.9h-8.8v-5.9h6.9v-1.9h-6.9v-5.4h8.5v-1.9h-10.6v16.9h0ZM422.2,442.2v-13.2h2.9c3.3,0,6.3,1.9,6.3,6.6s-3,6.6-6.3,6.6h-2.9ZM420.2,444h5c4.7,0,8.4-3.1,8.4-8.4s-3.7-8.4-8.4-8.4h-5v16.9ZM676,410.9l3.1-8,3,8h-6.1ZM684.5,417.2h2.2l-6.7-16.9h-1.9l-6.7,16.9h2.2l1.8-4.6h7.5l1.7,4.6h0ZM663.4,417.4c3.7,0,6.8-2.3,7.1-5.5h-2.1c-.2,2.1-2.4,3.6-5,3.6s-6-2.4-6-6.8,2.5-6.8,6-6.8,4.7,1.5,5,3.6h2.2c-.5-3.2-3.5-5.5-7.1-5.5s-8.1,2.8-8.1,8.6,3.9,8.6,8.1,8.6M650.5,417.2h2v-16.9h-2v16.9ZM641.6,417.4c3.5,0,6.2-1.7,6.2-4.8,0-6.4-9.9-3.7-9.9-8s1.3-2.6,3.6-2.6,3.7,1.2,3.9,3.1h2c-.2-3-2.6-5-6-5s-5.7,1.8-5.7,4.5c0,6,9.9,3.6,9.9,8s-1.7,2.9-4,2.9-4.2-1.5-4.4-3.9h-2c.2,3.5,2.6,5.7,6.4,5.7M630.5,417.2h2v-16.9h-2v16.9ZM630.6,399h1.8l2.5-3.6h-2.2l-2.1,3.6h0ZM617.1,417.2h2v-7.6h6.9v-1.9h-6.9v-5.6h8.5v-1.9h-10.6v16.9ZM597.7,417.2h10.8v-1.9h-8.8v-5.9h6.9v-1.9h-6.9v-5.4h8.5v-1.9h-10.6v16.9h0ZM583.6,415.4v-13.2h2.9c3.3,0,6.3,1.9,6.3,6.6s-3,6.6-6.3,6.6h-2.9ZM581.5,417.2h5c4.7,0,8.4-3.1,8.4-8.4s-3.7-8.4-8.4-8.4h-5v16.9ZM624.9,388.8c-3.5,0-6.2-2.9-6.2-6.8s2.6-6.8,6.2-6.8,6.2,2.9,6.2,6.8-2.6,6.8-6.2,6.8M624.9,390.6c4.8,0,8.3-3.7,8.3-8.6s-3.5-8.6-8.3-8.6-8.3,3.7-8.3,8.6,3.5,8.6,8.3,8.6M607.2,390.6c2.5,0,4.6-1.3,5.4-3.1v2.9h1.9v-5.8c0-1.9-1.8-2.9-3-2.9h-4.2v1.8h3.8c.8,0,1.3.5,1.3,1.3,0,2.4-2.5,4-5.2,4s-6-2.5-6-6.8,2.6-6.8,6-6.8,4.7,1.5,5.1,3.7h2.2c-.4-3.2-3.4-5.5-7.3-5.5s-8.2,2.9-8.2,8.6,3.9,8.6,8.1,8.6M586.8,390.4h10.8v-1.9h-8.8v-5.9h6.9v-1.9h-6.9v-5.4h8.5v-1.9h-10.6v16.9ZM574.2,390.4h10.5v-1.9h-8.4v-15h-2v16.9ZM561.6,384l3.1-8,3,8h-6.1ZM570.2,390.4h2.2l-6.7-16.9h-1.9l-6.7,16.9h2.2l1.8-4.6h7.5l1.7,4.6h0ZM548.3,390.6c2.5,0,4.6-1.3,5.4-3.1v2.9h1.9v-5.8c0-1.9-1.8-2.9-3-2.9h-4.2v1.8h3.8c.8,0,1.3.5,1.3,1.3,0,2.4-2.5,4-5.2,4s-6-2.5-6-6.8,2.6-6.8,6-6.8,4.7,1.5,5.1,3.7h2.2c-.4-3.2-3.4-5.5-7.3-5.5s-8.2,2.9-8.2,8.6,3.9,8.6,8.1,8.6M524.2,388.8c-3.5,0-6.2-2.9-6.2-6.8s2.6-6.8,6.2-6.8,6.2,2.9,6.2,6.8-2.6,6.8-6.2,6.8M524.2,390.6c4.8,0,8.3-3.7,8.3-8.6s-3.5-8.6-8.3-8.6-8.3,3.7-8.3,8.6,3.5,8.6,8.3,8.6M508.4,390.4h2.1v-15h5.4v-1.9h-12.9v1.9h5.4v15ZM494.8,390.6c3.8,0,6.4-2.3,6.4-6v-11.1h-2v11.2c0,2.5-1.7,4-4.4,4s-4.3-1.5-4.3-4v-11.2h-2v11.1c0,3.7,2.5,6,6.4,6M479.2,390.4h2.1v-15h5.4v-1.9h-12.9v1.9h5.4v15ZM469.7,390.4h2v-16.9h-2v16.9ZM460.2,390.4h2.1v-15h5.4v-1.9h-12.9v1.9h5.4v15ZM447.9,390.6c3.5,0,6.2-1.7,6.2-4.8,0-6.4-9.9-3.7-9.9-8s1.4-2.6,3.6-2.6,3.7,1.2,3.9,3.1h2c-.2-3-2.6-5-6-5s-5.7,1.8-5.7,4.5c0,6,9.9,3.6,9.9,8s-1.7,2.9-4,2.9-4.2-1.5-4.4-3.9h-2c.2,3.5,2.6,5.7,6.4,5.7M425.8,390.4h2v-13.7l8.7,13.7h2.4v-16.9h-2v13.8l-8.7-13.8h-2.3v16.9ZM420.2,390.4h2v-16.9h-2v16.9ZM886.8,373.4h-151.5c-19.5,0-35.4,15.9-35.4,35.4s15.9,35.4,35.4,35.4h151.5c19.5,0,35.4-15.9,35.4-35.4s-15.9-35.4-35.4-35.4ZM886.8,439.4h-151.5c-16.8,0-30.5-13.7-30.5-30.6s13.7-30.6,30.5-30.6h151.5c16.8,0,30.5,13.7,30.5,30.6s-13.7,30.6-30.5,30.6ZM869.3,424.8h22.2v5.7h-28.7v-19.1h6.5v13.4h0ZM869.3,405.7h22.2v5.7h-22.2v-5.7ZM869.3,405.8h-6.5v-18.7h28.7v5.7h-22.2v13h0ZM798.6,411.5v19.1h-6.5v-19.1h6.5v-5.7h21.5v5.7h-21.5,0ZM798.6,405.8h-6.5v-18.7h28v5.7h-21.5v13h0ZM730.7,387h6.5v43.6h-6.5v-43.6h0ZM834.9,387l-17.2,43.5h6.7l4.2-11.1h18.5l4.2,11.1h6.7l-17.2-43.5h-6,0ZM830.8,413.8l7.1-18.7,7.1,18.7h-14.2ZM750.5,408.8c0,10.7,6.3,16.8,14.9,16.8s12.8-4,12.8-9.7v-4.4h-13.5v-5.7h13.5v5.7h6.3v19.2h-5.9v-7.4c-1.9,4.7-7.1,7.9-13.3,7.9-11,0-21.2-7.4-21.2-22.3s10.4-22.3,21.5-22.3,18.2,6.1,19.1,14.7h-6.8c-.9-5.3-5.9-9-12.3-9s-15,5.9-15,16.6h0ZM301.2,387.5h-59.2c1.3-1.7,2.8-3.3,4.4-4.7h50.3c1.6,1.4,3.1,3,4.5,4.7h0ZM306.5,397h-69.8c.6-1.6,1.3-3.2,2.2-4.7h65.5c.8,1.5,1.6,3.1,2.2,4.7ZM253.1,439.5h37c-5.4,3-11.8,4.7-18.5,4.7s-13-1.7-18.5-4.7h0ZM296.8,434.8h-50.3c-1.6-1.4-3.1-3-4.4-4.7h59.2c-1.3,1.7-2.8,3.3-4.5,4.7ZM304.3,425.3h-65.5c-.8-1.5-1.6-3.1-2.2-4.7h69.8c-.6,1.6-1.3,3.2-2.2,4.7ZM308.5,406.4h-73.8c.1-1.6.3-3.2.7-4.7h72.5c.3,1.5.5,3.1.7,4.7h0ZM290.1,378.1h-36.9c5.4-3,11.8-4.7,18.5-4.7s13,1.7,18.5,4.7h0ZM307.9,415.9h-72.5c-.3-1.5-.6-3.1-.7-4.7h73.8c-.1,1.6-.3,3.2-.7,4.7h0ZM351.5,439.5h37c-5.4,3-11.8,4.7-18.5,4.7s-13-1.7-18.5-4.7h0ZM388.5,378.1h-37c5.4-3,11.8-4.7,18.5-4.7s13,1.7,18.5,4.7h0ZM369.9,411.2h37c-.1,1.6-.3,3.2-.7,4.7h-37c-.3,1.6-.8,3.2-1.4,4.7h37c-.6,1.6-1.3,3.2-2.2,4.7h-37c-.9,1.7-2,3.2-3.1,4.7h37c-1.3,1.7-2.8,3.3-4.5,4.7h-37c-2,1.8-4.3,3.4-6.7,4.7h-52.5c1.8-1.4,3.4-3,4.9-4.7h41c-1.6-1.4-3.1-3-4.5-4.7h-33c1-1.5,1.9-3.1,2.6-4.7h27.2c-.8-1.5-1.6-3.1-2.2-4.7h-23.2c.5-1.5.9-3.1,1.2-4.7h20.6c-.3-1.5-.5-3.1-.7-4.7h-19.4c0-.8,0-1.6,0-2.4s0-1.6,0-2.4h19.4c.1-1.6.3-3.2.7-4.7h-20.6c-.3-1.6-.7-3.2-1.2-4.7h23.2c.6-1.6,1.3-3.2,2.2-4.7h-27.2c-.8-1.6-1.6-3.2-2.6-4.7h33c1.3-1.7,2.8-3.3,4.5-4.7h-41c-1.5-1.7-3.1-3.3-4.9-4.7h52.5c2.4,1.3,4.6,2.9,6.7,4.7h37c1.6,1.4,3.1,3,4.5,4.7h-37c1.2,1.5,2.2,3.1,3.1,4.7h37c.8,1.5,1.6,3.1,2.2,4.7h-37c.6,1.5,1,3.1,1.4,4.7h37c.3,1.5.5,3.1.7,4.7h-37c0,.8,0,1.6,0,2.4s0,1.6,0,2.4Z"/>
</svg>