<?xml version="1.0" encoding="utf-8"?>
<svg version="1.1" xmlns="http://www.w3.org/2000/svg" xmlns:xlink="http://www.w3.org/1999/xlink" x="0px" y="0px" viewBox="0 0 256 256" enable-background="new 0 0 256 256" xml:space="preserve">
<!-- Processor frame (scaled thinner from center) -->
<g transform="translate(128,128) scale(0.9) translate(-128,-128)">
  <path fill="#000000" d="M110.7,10.9c-0.8,0.5-1.7,1.6-2,2.4c-0.3,1-0.5,7.1-0.5,18.7v17.2h-9.7h-9.7V36.7c0-14-0.2-14.9-3-16.3c-2-1-11.5-1-13.8-0.1c-1.6,0.7-3,2.7-3,4.4s1.4,3.7,3,4.4c0.9,0.4,2.7,0.6,4.1,0.6h2.5v9.6V49l-4.5,0.3c-7.7,0.5-12.9,2.6-17.6,7.3c-4.7,4.7-6.8,9.8-7.3,17.5L49,78.7h-9.6h-9.6v-2.5c0-1.4-0.3-3.3-0.6-4.1c-0.7-1.6-2.7-3-4.4-3s-3.7,1.4-4.4,3c-0.9,2.3-0.9,11.8,0.1,13.8c1.3,2.8,2.3,3,16.3,3h12.5v9.7v9.7H31.9c-19,0-19.8,0.1-21.2,2.7c-0.9,1.8-0.9,3,0,4.7c1.3,2.6,2.1,2.7,21.2,2.7h17.3v9.7v9.7H31.9c-19,0-19.8,0.1-21.2,2.7c-0.9,1.8-0.9,3,0,4.7c1.3,2.6,2.1,2.7,21.2,2.7h17.3v9.7v9.7H36.7c-14,0-14.9,0.2-16.3,3c-1,2-1,11.5-0.1,13.8c0.7,1.6,2.7,3,4.4,3c1.7,0,3.7-1.4,4.4-3c0.4-0.9,0.6-2.7,0.6-4.1v-2.5h9.7h9.7v3.1c0,12.1,7.1,22,18,25.2c1.4,0.4,4.6,0.9,7.1,1.1l4.5,0.3v9.6v9.6h-2.5c-1.4,0-3.3,0.3-4.1,0.6c-1.6,0.7-3,2.7-3,4.4c0,1.7,1.4,3.7,3,4.4c2.3,0.9,11.8,0.9,13.8-0.1c2.8-1.3,3-2.3,3-16.3v-12.5h9.7h9.7v17.3c0,19,0.1,19.8,2.7,21.2c1.8,0.9,3,0.9,4.7,0c2.6-1.3,2.7-2.1,2.7-21.2v-17.3h9.7h9.7v17.3c0,19,0.1,19.8,2.7,21.2c1.8,0.9,2.9,0.9,4.7,0c2.6-1.3,2.7-2.1,2.7-21.2v-17.3h9.7h9.7v12.5c0,14,0.2,14.9,3,16.3c2,1,11.5,1,13.8,0.1c1.6-0.7,3-2.7,3-4.4c0-1.7-1.4-3.7-3-4.4c-0.9-0.4-2.7-0.6-4.1-0.6h-2.5v-9.6V207l4.5-0.3c7.7-0.5,12.9-2.6,17.5-7.3c4.7-4.7,6.8-9.8,7.3-17.5l0.3-4.5h9.6h9.6v2.5c0,1.4,0.3,3.3,0.6,4.1c0.7,1.6,2.7,3,4.4,3s3.7-1.4,4.4-3c0.9-2.3,0.9-11.8-0.1-13.8c-1.3-2.8-2.3-3-16.3-3h-12.5v-9.7v-9.7h17.3c19,0,19.8-0.1,21.2-2.7c0.9-1.8,0.9-3,0-4.7c-1.3-2.6-2.1-2.7-21.1-2.7h-17.3l-0.3-1.2c-0.5-1.8-2.7-3.5-4.8-3.5c-1.3,0-2.2,0.3-3.3,1.3l-1.5,1.3l-0.2,25.3l-0.2,25.3l-1.1,2.1c-1.5,2.8-4,5.3-6.7,6.8l-2.3,1.2l-57.8,0.1l-57.8,0.1l-2.6-1.2c-3.4-1.6-5.9-4-7.5-7.4l-1.3-2.8v-57c0-65.6-0.4-60,4.4-64.7c4.7-4.7-0.9-4.4,64.7-4.4h57l2.8,1.3c3.4,1.6,5.8,4.1,7.3,7.4l1.2,2.5v21.3v21.4h-4.8h-4.8l-0.1-18.8l-0.1-18.8l-1.3-1.9c-0.7-1.1-2.1-2.5-3.2-3.2l-1.9-1.3l-51.2-0.1c-39.4-0.1-51.7,0-53.3,0.5c-2.7,0.7-5.6,3.6-6.4,6.4c-0.5,1.6-0.6,13.9-0.5,53.3l0.1,51.2l1.3,1.9c0.7,1.1,2.1,2.5,3.2,3.2l1.9,1.3l51.2,0.1c39.4,0.1,51.7,0,53.3-0.5c2.6-0.7,5.6-3.6,6.4-6.2c0.9-3,0.8-43.1-0.1-44.9c-1.3-2.5-5.3-3.2-7.5-1.2l-1.3,1.1l-0.2,20.9l-0.2,20.9H128H78.9V128V78.9H128h49.1l0.2,20.9l0.2,20.9l1.3,1.1c1.3,1.1,1.3,1.1,12.9,1.1c12.9,0,13.2,0,14.4-3l0.6-1.6h17.3c19,0,19.8-0.1,21.2-2.7c0.9-1.8,0.9-3,0-4.7c-1.3-2.6-2.1-2.7-21.2-2.7h-17.3v-9.7v-9.7h12.5c14,0,14.9-0.2,16.3-3c1-2,1-11.5-0.1-13.8c-0.7-1.6-2.7-3-4.4-3c-1.7,0-3.7,1.4-4.4,3c-0.4,0.9-0.6,2.7-0.6,4.1v2.5h-9.6H207l-0.3-4.5c-0.1-2.4-0.6-5.6-1.1-7c-3.2-10.9-13.1-17.9-25.2-18h-3.1v-9.7v-9.7h2.5c1.4,0,3.3-0.3,4.1-0.6c1.6-0.7,3-2.7,3-4.4c0-1.7-1.4-3.7-3-4.4c-2.3-0.9-11.8-0.9-13.8,0.1c-2.8,1.3-3,2.3-3,16.3v12.5h-9.7h-9.7V31.9c0-19-0.1-19.8-2.7-21.2c-0.7-0.4-1.8-0.7-2.4-0.7s-1.6,0.3-2.4,0.7c-2.6,1.3-2.7,2.1-2.7,21.2v17.3H128h-9.7V31.9c0-19-0.1-19.8-2.7-21.2C113.8,9.7,112.4,9.8,110.7,10.9z"/>
  <!-- Cover inner squares, keep only outer frame -->
  <rect x="74" y="74" width="108" height="108" fill="#fff"/>
</g>
<!-- QR code (5% bigger: 0.336) -->
<g transform="translate(65.84,65.84) scale(0.336)">
  <path stroke="#000" d="M4 4.5h7m1 0h4m1 0h1m1 0h1m3 0h2m1 0h7m-29 1h1m5 0h1m1 0h2m1 0h1m1 0h1m6 0h1m1 0h1m5 0h1m-29 1h1m1 0h3m1 0h1m2 0h4m3 0h1m5 0h1m1 0h3m1 0h1m-29 1h1m1 0h3m1 0h1m1 0h1m1 0h3m1 0h2m1 0h1m1 0h2m1 0h1m1 0h3m1 0h1m-29 1h1m1 0h3m1 0h1m5 0h1m1 0h1m4 0h1m2 0h1m1 0h3m1 0h1m-29 1h1m5 0h1m3 0h1m1 0h2m3 0h4m1 0h1m5 0h1m-29 1h7m1 0h1m1 0h1m1 0h1m1 0h1m1 0h1m1 0h1m1 0h1m1 0h7m-21 1h2m6 0h3m-19 1h1m1 0h2m1 0h3m3 0h1m1 0h1m1 0h5m2 0h1m2 0h1m1 0h2m-29 1h2m5 0h4m1 0h3m1 0h1m1 0h7m3 0h1m-28 1h3m1 0h3m2 0h1m2 0h1m2 0h3m2 0h2m3 0h2m-26 1h2m5 0h3m3 0h1m3 0h2m2 0h1m4 0h1m-29 1h1m5 0h2m2 0h1m3 0h1m2 0h1m2 0h1m4 0h2m-22 1h1m1 0h1m1 0h1m2 0h1m1 0h6m1 0h2m3 0h3m-29 1h4m2 0h1m1 0h1m1 0h1m1 0h2m3 0h1m1 0h2m1 0h1m1 0h1m1 0h3m-26 1h1m8 0h1m1 0h1m3 0h5m1 0h1m2 0h1m-28 1h5m1 0h3m1 0h3m1 0h1m3 0h1m1 0h2m2 0h2m1 0h1m-27 1h1m2 0h1m3 0h1m1 0h1m1 0h1m1 0h2m1 0h1m2 0h1m2 0h1m1 0h3m-28 1h1m1 0h1m1 0h1m1 0h1m1 0h8m2 0h1m1 0h1m1 0h1m3 0h1m-25 1h1m5 0h1m2 0h1m1 0h6m1 0h3m3 0h1m-26 1h3m1 0h2m1 0h1m2 0h1m1 0h6m1 0h7m-19 1h1m2 0h2m5 0h1m1 0h1m3 0h5m-29 1h7m1 0h1m2 0h2m1 0h1m3 0h3m1 0h1m1 0h2m1 0h1m-28 1h1m5 0h1m1 0h1m1 0h7m1 0h1m1 0h1m3 0h2m1 0h1m-28 1h1m1 0h3m1 0h1m9 0h2m2 0h5m1 0h2m-28 1h1m1 0h3m1 0h1m1 0h3m2 0h1m1 0h4m2 0h1m1 0h3m2 0h1m-29 1h1m1 0h3m1 0h1m1 0h2m1 0h1m1 0h2m3 0h2m3 0h1m2 0h1m1 0h1m-29 1h1m5 0h1m3 0h2m1 0h1m1 0h2m2 0h2m2 0h3m1 0h1m-28 1h7m1 0h4m6 0h3m6 0h1" transform="scale(10)"/>
</g>
</svg>
